<?xml version="1.0" standalone="no"?><!DOCTYPE svg PUBLIC "-//W3C//DTD SVG 1.1//EN" "http://www.w3.org/Graphics/SVG/1.1/DTD/svg11.dtd"><svg t="1629122280883" class="icon" viewBox="0 0 1024 1024" version="1.1" xmlns="http://www.w3.org/2000/svg" p-id="4754" xmlns:xlink="http://www.w3.org/1999/xlink" width="200" height="200"><defs><style type="text/css"></style></defs><path d="M342.308571 791.405714c-4.388571 0-8.777143-2.925714-10.24-8.777143-1.462857-5.851429 2.925714-11.702857 8.777143-11.702857l650.971429-115.565714c5.851429-1.462857 11.702857 2.925714 11.702857 8.777143 1.462857 5.851429-2.925714 11.702857-8.777143 11.702857L343.771429 789.942857c0 1.462857-1.462857 1.462857-1.462858 1.462857zM30.72 699.245714c-5.851429 0-10.24-4.388571-10.24-8.777143 0-5.851429 4.388571-10.24 8.777143-11.702857l958.171428-81.92c5.851429 0 10.24 4.388571 11.702858 8.777143 0 5.851429-4.388571 10.24-8.777143 11.702857L30.72 699.245714c1.462857 0 1.462857 0 0 0z" fill="#141515" p-id="4755"></path><path d="M412.525714 775.314286H409.6L77.531429 687.542857c-5.851429-1.462857-8.777143-7.314286-7.314286-13.165714 1.462857-5.851429 7.314286-8.777143 13.165714-7.314286l332.068572 87.771429c5.851429 1.462857 8.777143 7.314286 7.314285 13.165714-1.462857 4.388571-5.851429 7.314286-10.24 7.314286zM564.662857 748.982857h-2.925714l-280.868572-77.531428c-5.851429-1.462857-8.777143-7.314286-7.314285-13.165715 1.462857-5.851429 7.314286-8.777143 13.165714-7.314285l280.868571 77.531428c5.851429 1.462857 8.777143 7.314286 7.314286 13.165714-1.462857 4.388571-5.851429 7.314286-10.24 7.314286zM681.691429 728.502857h-2.925715L437.394286 658.285714c-5.851429-1.462857-8.777143-7.314286-7.314286-13.165714 1.462857-5.851429 7.314286-8.777143 13.165714-7.314286l242.834286 70.217143c5.851429 1.462857 8.777143 7.314286 7.314286 13.165714-2.925714 4.388571-7.314286 7.314286-11.702857 7.314286zM778.24 712.411429H775.314286l-210.651429-62.902858c-5.851429-1.462857-8.777143-7.314286-7.314286-13.165714 1.462857-5.851429 7.314286-8.777143 13.165715-7.314286l210.651428 62.902858c5.851429 1.462857 8.777143 7.314286 7.314286 13.165714-1.462857 4.388571-5.851429 7.314286-10.24 7.314286zM858.697143 697.782857h-2.925714l-184.32-57.051428c-5.851429-1.462857-8.777143-7.314286-7.314286-13.165715 1.462857-5.851429 7.314286-8.777143 13.165714-7.314285l184.32 57.051428c5.851429 1.462857 8.777143 7.314286 7.314286 13.165714-1.462857 4.388571-5.851429 7.314286-10.24 7.314286zM928.914286 686.08h-2.925715l-160.914285-52.662857c-5.851429-1.462857-8.777143-7.314286-7.314286-13.165714 1.462857-5.851429 7.314286-8.777143 13.165714-7.314286l160.914286 52.662857c5.851429 1.462857 8.777143 7.314286 7.314286 13.165714-2.925714 4.388571-5.851429 7.314286-10.24 7.314286z" fill="#141515" p-id="4756"></path><path d="M990.354286 675.84h-2.925715l-140.434285-48.274286c-5.851429-1.462857-8.777143-7.314286-5.851429-13.165714 1.462857-5.851429 7.314286-8.777143 13.165714-5.851429l140.434286 48.274286c5.851429 1.462857 8.777143 7.314286 5.851429 13.165714-1.462857 2.925714-5.851429 5.851429-10.24 5.851429z" fill="#141515" p-id="4757"></path><path d="M236.982857 242.834286h124.342857c84.845714 0 137.508571 17.554286 217.965715 45.348571 90.697143 30.72 197.485714 65.828571 288.182857 96.548572 95.085714 36.571429 124.342857 76.068571 125.805714 146.285714v87.771428l-520.777143 49.737143c-59.977143 5.851429-117.028571 14.628571-177.005714 11.702857l-157.988572-5.851428C86.308571 672.914286 48.274286 633.417143 43.885714 582.217143c-2.925714-40.96-7.314286-76.068571 13.165715-122.88l77.531428-174.08c14.628571-33.645714 62.902857-42.422857 102.4-42.422857z" fill="#E9606E" p-id="4758"></path><path d="M318.902857 691.931429h-23.405714l-157.988572-7.314286c-55.588571-2.925714-98.011429-45.348571-103.862857-100.937143v-1.462857c-2.925714-42.422857-7.314286-77.531429 14.628572-125.805714l77.531428-174.08c13.165714-30.72 52.662857-48.274286 111.177143-48.274286h124.342857c87.771429 0 143.36 19.017143 220.891429 45.348571 45.348571 14.628571 93.622857 32.182857 141.897143 48.274286 49.737143 16.091429 99.474286 33.645714 144.822857 49.737143 96.548571 36.571429 130.194286 77.531429 131.657143 155.062857l1.462857 87.771429c0 5.851429-4.388571 10.24-8.777143 10.24l-542.72 51.2c-45.348571 5.851429-87.771429 10.24-131.657143 10.24z m-81.92-437.394286c-29.257143 0-78.994286 4.388571-92.16 35.108571L67.291429 463.725714c-19.017143 43.885714-16.091429 76.068571-13.165715 115.565715v1.462857c4.388571 48.274286 38.034286 81.92 83.382857 83.382857l157.988572 5.851428c52.662857 1.462857 100.937143-2.925714 153.6-8.777142l23.405714-2.925715 510.537143-48.274285-1.462857-78.994286c-1.462857-58.514286-20.48-98.011429-118.491429-136.045714-45.348571-16.091429-95.085714-32.182857-144.822857-48.274286-48.274286-16.091429-98.011429-32.182857-141.897143-48.274286-78.994286-26.331429-130.194286-43.885714-215.04-43.885714h-124.342857z" fill="#141515" p-id="4759"></path><path d="M993.28 586.605714v33.645715l-520.777143 49.737142c-29.257143 2.925714-58.514286 7.314286-87.771428 8.777143 24.868571-65.828571 45.348571-90.697143 137.508571-90.697143l471.04-1.462857z" fill="#EEECF6" p-id="4760"></path><path d="M384.731429 689.005714c-2.925714 0-5.851429-1.462857-8.777143-4.388571-1.462857-2.925714-2.925714-7.314286-1.462857-10.24 27.794286-71.68 54.125714-96.548571 147.748571-98.011429l469.577143-1.462857c5.851429 0 10.24 4.388571 10.24 10.24v33.645714c0 5.851429-4.388571 10.24-8.777143 10.24l-542.72 51.2c-20.48 4.388571-42.422857 7.314286-65.828571 8.777143 1.462857 0 0 0 0 0z m598.308571-92.16l-459.337143 1.462857c-80.457143 0-100.937143 19.017143-121.417143 68.754286l48.274286-4.388571 21.942857-2.925715 510.537143-48.274285v-14.628572z" fill="#141515" p-id="4761"></path><path d="M984.502857 482.742857c4.388571 14.628571 7.314286 30.72 7.314286 49.737143v13.165714l-453.485714-21.942857c-80.457143-4.388571-108.251429-4.388571-83.382858-89.234286l32.182858-109.714285 497.371428 157.988571z" fill="#90CED9" p-id="4762"></path><path d="M991.817143 555.885714l-454.948572-21.942857c-49.737143-2.925714-78.994286-4.388571-93.622857-24.868571-10.24-14.628571-10.24-38.034286 1.462857-77.531429l32.182858-109.714286c1.462857-2.925714 2.925714-4.388571 4.388571-5.851428 2.925714-1.462857 5.851429-1.462857 7.314286-1.462857l497.371428 156.525714c2.925714 1.462857 5.851429 2.925714 7.314286 7.314286 4.388571 14.628571 7.314286 32.182857 7.314286 52.662857v13.165714c0 2.925714-1.462857 5.851429-2.925715 7.314286 0 2.925714-2.925714 4.388571-5.851428 4.388571z m-497.371429-216.502857l-29.257143 99.474286c-8.777143 32.182857-10.24 51.2-4.388571 59.977143 8.777143 11.702857 38.034286 13.165714 77.531429 16.091428l443.245714 20.48v-2.925714c0-16.091429-1.462857-29.257143-5.851429-40.96L494.445714 339.382857z" fill="#141515" p-id="4763"></path><path d="M236.982857 242.834286h124.342857c13.165714 0 24.868571 0 38.034286 1.462857l-74.605714 185.782857c-17.554286 43.885714-68.754286 78.994286-115.565715 78.994286h-42.422857c-46.811429 0-70.217143-35.108571-52.662857-78.994286L185.782857 248.685714c16.091429-2.925714 33.645714-5.851429 51.2-5.851428z" fill="#90CED9" p-id="4764"></path><path d="M209.188571 519.314286h-42.422857c-26.331429 0-46.811429-10.24-58.514285-27.794286-11.702857-17.554286-13.165714-40.96-4.388572-65.828571l74.605714-185.782858 4.388572-1.462857c16.091429-4.388571 33.645714-5.851429 54.125714-5.851428h124.342857c13.165714 0 26.331429 0 38.034286 1.462857l14.628571 1.462857-78.994285 198.948571c-19.017143 46.811429-76.068571 84.845714-125.805715 84.845715z m-16.091428-261.851429L122.88 434.468571c-7.314286 17.554286-5.851429 33.645714 1.462857 45.348572 8.777143 11.702857 23.405714 19.017143 42.422857 19.017143h42.422857c42.422857 0 90.697143-33.645714 106.788572-71.68l68.754286-172.617143h-146.285715c-17.554286 0-32.182857 1.462857-45.348571 2.925714z" fill="#141515" p-id="4765"></path><path d="M348.16 621.714286s-1.462857 0 0 0c-5.851429 0-10.24-5.851429-10.24-10.24 2.925714-49.737143 17.554286-92.16 32.182857-138.971429l67.291429-198.948571c1.462857-5.851429 7.314286-8.777143 13.165714-5.851429 5.851429 1.462857 8.777143 7.314286 5.851429 13.165714l-67.291429 198.948572c-14.628571 43.885714-29.257143 86.308571-30.72 133.12 0 4.388571-5.851429 8.777143-10.24 8.777143z" fill="#141515" p-id="4766"></path><path d="M76.068571 536.868571m-45.348571 0a45.348571 45.348571 0 1 0 90.697143 0 45.348571 45.348571 0 1 0-90.697143 0Z" fill="#FCDD10" p-id="4767"></path><path d="M76.068571 590.994286c-30.72 0-55.588571-24.868571-55.588571-55.588572 0-30.72 24.868571-55.588571 55.588571-55.588571 30.72 0 55.588571 24.868571 55.588572 55.588571-1.462857 32.182857-24.868571 55.588571-55.588572 55.588572z m0-89.234286c-19.017143 0-35.108571 16.091429-35.108571 35.108571C40.96 555.885714 57.051429 570.514286 76.068571 570.514286c19.017143 0 35.108571-16.091429 35.108572-35.108572-1.462857-17.554286-16.091429-33.645714-35.108572-33.645714z" fill="#141515" p-id="4768"></path><path d="M288.182857 554.422857m-45.348571 0a45.348571 45.348571 0 1 0 90.697143 0 45.348571 45.348571 0 1 0-90.697143 0Z" fill="#FCDD10" p-id="4769"></path><path d="M288.182857 608.548571c-30.72 0-55.588571-24.868571-55.588571-55.588571 0-30.72 24.868571-55.588571 55.588571-55.588571s55.588571 24.868571 55.588572 55.588571c0 30.72-24.868571 55.588571-55.588572 55.588571z m0-89.234285c-19.017143 0-35.108571 16.091429-35.108571 35.108571 0 19.017143 16.091429 35.108571 35.108571 35.108572 19.017143 0 35.108571-16.091429 35.108572-35.108572 0-19.017143-16.091429-35.108571-35.108572-35.108571z" fill="#141515" p-id="4770"></path></svg>